<mxfile host="Electron" modified="2024-03-01T08:47:04.529Z" agent="Mozilla/5.0 (Windows NT 10.0; Win64; x64) AppleWebKit/537.36 (KHTML, like Gecko) draw.io/23.1.5 Chrome/120.0.6099.109 Electron/28.1.0 Safari/537.36" etag="YfEC7myfuy3q41XlDUMQ" version="23.1.5" type="device">
  <diagram name="Страница — 1" id="URRBZ8-3dF4XfcyBGbTP">
    <mxGraphModel dx="1434" dy="2053" grid="1" gridSize="10" guides="1" tooltips="1" connect="1" arrows="1" fold="1" page="1" pageScale="1" pageWidth="827" pageHeight="1169" math="0" shadow="0">
      <root>
        <mxCell id="0" />
        <mxCell id="1" parent="0" />
        <mxCell id="F-IOf9tZ29aGTxCsL80L-2" value="" style="whiteSpace=wrap;html=1;aspect=fixed;" vertex="1" parent="1">
          <mxGeometry x="14" y="-10" width="680" height="680" as="geometry" />
        </mxCell>
        <mxCell id="F-IOf9tZ29aGTxCsL80L-3" value="Информационная система поддержки процессов дополнительного образования" style="text;html=1;align=center;verticalAlign=middle;whiteSpace=wrap;rounded=0;" vertex="1" parent="1">
          <mxGeometry x="224" width="260" height="30" as="geometry" />
        </mxCell>
        <mxCell id="F-IOf9tZ29aGTxCsL80L-13" style="rounded=0;orthogonalLoop=1;jettySize=auto;html=1;entryX=0;entryY=0.5;entryDx=0;entryDy=0;" edge="1" parent="1" source="F-IOf9tZ29aGTxCsL80L-4" target="F-IOf9tZ29aGTxCsL80L-12">
          <mxGeometry relative="1" as="geometry" />
        </mxCell>
        <mxCell id="F-IOf9tZ29aGTxCsL80L-27" style="edgeStyle=orthogonalEdgeStyle;rounded=0;orthogonalLoop=1;jettySize=auto;html=1;entryX=0.5;entryY=0;entryDx=0;entryDy=0;" edge="1" parent="1" source="F-IOf9tZ29aGTxCsL80L-4" target="F-IOf9tZ29aGTxCsL80L-21">
          <mxGeometry relative="1" as="geometry">
            <Array as="points">
              <mxPoint x="180" y="220" />
              <mxPoint x="354" y="220" />
            </Array>
          </mxGeometry>
        </mxCell>
        <mxCell id="F-IOf9tZ29aGTxCsL80L-4" value="Модуль администратора&amp;nbsp;" style="shape=module;align=left;spacingLeft=20;align=center;verticalAlign=top;whiteSpace=wrap;html=1;" vertex="1" parent="1">
          <mxGeometry x="120" y="130" width="120" height="60" as="geometry" />
        </mxCell>
        <mxCell id="F-IOf9tZ29aGTxCsL80L-28" style="edgeStyle=orthogonalEdgeStyle;rounded=0;orthogonalLoop=1;jettySize=auto;html=1;entryX=0.75;entryY=0;entryDx=0;entryDy=0;" edge="1" parent="1" source="F-IOf9tZ29aGTxCsL80L-5" target="F-IOf9tZ29aGTxCsL80L-21">
          <mxGeometry relative="1" as="geometry">
            <Array as="points">
              <mxPoint x="500" y="220" />
              <mxPoint x="379" y="220" />
            </Array>
          </mxGeometry>
        </mxCell>
        <mxCell id="F-IOf9tZ29aGTxCsL80L-5" value="Клиентский портал" style="shape=module;align=left;spacingLeft=20;align=center;verticalAlign=top;whiteSpace=wrap;html=1;" vertex="1" parent="1">
          <mxGeometry x="440" y="130" width="120" height="60" as="geometry" />
        </mxCell>
        <mxCell id="F-IOf9tZ29aGTxCsL80L-7" value="MS SQL SERVER" style="shape=module;align=left;spacingLeft=20;align=center;verticalAlign=top;whiteSpace=wrap;html=1;" vertex="1" parent="1">
          <mxGeometry x="384" y="355" width="100" height="50" as="geometry" />
        </mxCell>
        <mxCell id="F-IOf9tZ29aGTxCsL80L-8" value="Планировщик задач" style="shape=module;align=left;spacingLeft=20;align=center;verticalAlign=top;whiteSpace=wrap;html=1;" vertex="1" parent="1">
          <mxGeometry x="230" y="355" width="100" height="50" as="geometry" />
        </mxCell>
        <mxCell id="F-IOf9tZ29aGTxCsL80L-12" value="" style="ellipse;whiteSpace=wrap;html=1;aspect=fixed;" vertex="1" parent="1">
          <mxGeometry x="344" y="140" width="20" height="20" as="geometry" />
        </mxCell>
        <mxCell id="F-IOf9tZ29aGTxCsL80L-14" style="rounded=0;orthogonalLoop=1;jettySize=auto;html=1;entryX=0;entryY=0;entryDx=0;entryDy=15;entryPerimeter=0;" edge="1" parent="1" source="F-IOf9tZ29aGTxCsL80L-12" target="F-IOf9tZ29aGTxCsL80L-5">
          <mxGeometry relative="1" as="geometry" />
        </mxCell>
        <mxCell id="F-IOf9tZ29aGTxCsL80L-18" value="REST API ?" style="text;html=1;align=center;verticalAlign=middle;whiteSpace=wrap;rounded=0;" vertex="1" parent="1">
          <mxGeometry x="324" y="110" width="60" height="30" as="geometry" />
        </mxCell>
        <mxCell id="F-IOf9tZ29aGTxCsL80L-25" style="edgeStyle=orthogonalEdgeStyle;rounded=0;orthogonalLoop=1;jettySize=auto;html=1;entryX=0.75;entryY=0;entryDx=0;entryDy=0;" edge="1" parent="1" source="F-IOf9tZ29aGTxCsL80L-21" target="F-IOf9tZ29aGTxCsL80L-8">
          <mxGeometry relative="1" as="geometry" />
        </mxCell>
        <mxCell id="F-IOf9tZ29aGTxCsL80L-26" style="edgeStyle=orthogonalEdgeStyle;rounded=0;orthogonalLoop=1;jettySize=auto;html=1;entryX=0.25;entryY=0;entryDx=0;entryDy=0;" edge="1" parent="1" source="F-IOf9tZ29aGTxCsL80L-21" target="F-IOf9tZ29aGTxCsL80L-7">
          <mxGeometry relative="1" as="geometry" />
        </mxCell>
        <mxCell id="F-IOf9tZ29aGTxCsL80L-21" value="Сервер&lt;div&gt;&lt;br/&gt;&lt;/div&gt;" style="shape=module;align=left;spacingLeft=20;align=center;verticalAlign=top;whiteSpace=wrap;html=1;" vertex="1" parent="1">
          <mxGeometry x="304" y="250" width="100" height="50" as="geometry" />
        </mxCell>
      </root>
    </mxGraphModel>
  </diagram>
</mxfile>
